<mxfile host="Electron" modified="2023-06-18T10:52:10.456Z" agent="Mozilla/5.0 (X11; Linux x86_64) AppleWebKit/537.36 (KHTML, like Gecko) draw.io/21.4.0 Chrome/112.0.5615.204 Electron/24.5.1 Safari/537.36" etag="25RG40YFAIlt_ts2k0zA" version="21.4.0" type="device">
  <diagram name="Page-1" id="iD5kgUH1zC-TVhooErfj">
    <mxGraphModel dx="1434" dy="875" grid="1" gridSize="10" guides="1" tooltips="1" connect="1" arrows="1" fold="1" page="1" pageScale="1" pageWidth="850" pageHeight="1100" math="0" shadow="0">
      <root>
        <mxCell id="0" />
        <mxCell id="1" parent="0" />
        <mxCell id="zQv13hE1WtpFsyyrXa6s-2" value="" style="shape=image;imageAspect=0;aspect=fixed;verticalLabelPosition=bottom;verticalAlign=top;image=data:image/svg+xml,PHN2ZyB4bWxucz0iaHR0cDovL3d3dy53My5vcmcvMjAwMC9zdmciIGhlaWdodD0iMjU2cHgiIHdpZHRoPSIyNTZweCIgdmlld0JveD0iMCAwIDUxMiA1MTIiPjxyZWN0IHJ5PSIyMCIgcng9IjIwIiBmaWxsPSIjMmQyZDMwIiB5PSIxNTIiIHg9IjMyIiBoZWlnaHQ9IjExMiIgd2lkdGg9IjQ0OCIvPjxjaXJjbGUgZmlsbD0iIzkxZGM1YSIgcj0iMjQiIGN5PSIyMDgiIGN4PSI4OCIvPjxjaXJjbGUgZmlsbD0iI2ZmZGE0NCIgcj0iMjQiIGN5PSIyMDgiIGN4PSIxNjAiLz48Y2lyY2xlIGZpbGw9IiNkODAwMjciIHI9IjI0IiBjeT0iMjA4IiBjeD0iMjMyIi8+PHJlY3QgZmlsbD0iIzAwNmRmMCIgeT0iMTUyIiB4PSI0MDgiIGhlaWdodD0iMTEyIiB3aWR0aD0iMzIiLz48cmVjdCBmaWxsPSIjMDA2ZGYwIiB5PSIxNTIiIHg9IjM1MiIgaGVpZ2h0PSIxMTIiIHdpZHRoPSIzMiIvPjxyZWN0IHJ5PSIyMCIgcng9IjIwIiBmaWxsPSIjMmQyZDMwIiB5PSIxNiIgeD0iMzIiIGhlaWdodD0iMTEyIiB3aWR0aD0iNDQ4Ii8+PGNpcmNsZSBmaWxsPSIjOTFkYzVhIiByPSIyNCIgY3k9IjcyIiBjeD0iODgiLz48Y2lyY2xlIGZpbGw9IiNmZmRhNDQiIHI9IjI0IiBjeT0iNzIiIGN4PSIxNjAiLz48Y2lyY2xlIGZpbGw9IiNkODAwMjciIHI9IjI0IiBjeT0iNzIiIGN4PSIyMzIiLz48cmVjdCBmaWxsPSIjMDA2ZGYwIiB5PSIxNiIgeD0iNDA4IiBoZWlnaHQ9IjExMiIgd2lkdGg9IjMyIi8+PHJlY3QgZmlsbD0iIzAwNmRmMCIgeT0iMTYiIHg9IjM1MiIgaGVpZ2h0PSIxMTIiIHdpZHRoPSIzMiIvPjxyZWN0IGZpbGw9IiM3ODc2ODAiIHk9IjEyOCIgeD0iODAiIGhlaWdodD0iMjQiIHdpZHRoPSIzNTIiLz48cmVjdCByeT0iMjAiIHJ4PSIyMCIgZmlsbD0iIzJkMmQzMCIgeT0iMjg4IiB4PSIzMiIgaGVpZ2h0PSIxMTIiIHdpZHRoPSI0NDgiLz48Y2lyY2xlIGZpbGw9IiM5MWRjNWEiIHI9IjI0IiBjeT0iMzQ0IiBjeD0iODgiLz48Y2lyY2xlIGZpbGw9IiNmZmRhNDQiIHI9IjI0IiBjeT0iMzQ0IiBjeD0iMTYwIi8+PGNpcmNsZSBmaWxsPSIjZDgwMDI3IiByPSIyNCIgY3k9IjM0NCIgY3g9IjIzMiIvPjxyZWN0IGZpbGw9IiMwMDZkZjAiIHk9IjI4OCIgeD0iNDA4IiBoZWlnaHQ9IjExMiIgd2lkdGg9IjMyIi8+PHJlY3QgZmlsbD0iIzAwNmRmMCIgeT0iMjg4IiB4PSIzNTIiIGhlaWdodD0iMTEyIiB3aWR0aD0iMzIiLz48cmVjdCBmaWxsPSIjNzg3NjgwIiB5PSIyNjQiIHg9IjgwIiBoZWlnaHQ9IjI0IiB3aWR0aD0iMzUyIi8+PHJlY3QgZmlsbD0iIzc4NzY4MCIgeT0iNDAwIiB4PSIyMzIiIGhlaWdodD0iMjQiIHdpZHRoPSI0OCIvPjxyZWN0IGZpbGw9IiMzZTNkNDIiIHk9IjQ2NCIgeD0iMjQwIiBoZWlnaHQ9IjMyIiB3aWR0aD0iMzIiLz48Zz48cGF0aCBkPSJNMTIwLDIwOGEzMiwzMiwwLDEsMC0zMiwzMkEzMi4wMzYsMzIuMDM2LDAsMCwwLDEyMCwyMDhabS00OCwwYTE2LDE2LDAsMSwxLDE2LDE2QTE2LjAxOSwxNi4wMTksMCwwLDEsNzIsMjA4WiIvPjxwYXRoIGQ9Ik0xNjAsMjQwYTMyLDMyLDAsMSwwLTMyLTMyQTMyLjAzNiwzMi4wMzYsMCwwLDAsMTYwLDI0MFptMC00OGExNiwxNiwwLDEsMS0xNiwxNkExNi4wMTksMTYuMDE5LDAsMCwxLDE2MCwxOTJaIi8+PHBhdGggZD0iTTIzMiwyNDBhMzIsMzIsMCwxLDAtMzItMzJBMzIuMDM2LDMyLjAzNiwwLDAsMCwyMzIsMjQwWm0wLTQ4YTE2LDE2LDAsMSwxLTE2LDE2QTE2LjAxOSwxNi4wMTksMCwwLDEsMjMyLDE5MloiLz48cGF0aCBkPSJNMTIwLDcyYTMyLDMyLDAsMSwwLTMyLDMyQTMyLjAzNiwzMi4wMzYsMCwwLDAsMTIwLDcyWk03Miw3MkExNiwxNiwwLDEsMSw4OCw4OCwxNi4wMTksMTYuMDE5LDAsMCwxLDcyLDcyWiIvPjxwYXRoIGQ9Ik0xNjAsMTA0YTMyLDMyLDAsMSwwLTMyLTMyQTMyLjAzNiwzMi4wMzYsMCwwLDAsMTYwLDEwNFptMC00OGExNiwxNiwwLDEsMS0xNiwxNkExNi4wMTksMTYuMDE5LDAsMCwxLDE2MCw1NloiLz48cGF0aCBkPSJNMjMyLDEwNGEzMiwzMiwwLDEsMC0zMi0zMkEzMi4wMzYsMzIuMDM2LDAsMCwwLDIzMiwxMDRabTAtNDhhMTYsMTYsMCwxLDEtMTYsMTZBMTYuMDE5LDE2LjAxOSwwLDAsMSwyMzIsNTZaIi8+PHBhdGggZD0iTTg4LDMxMmEzMiwzMiwwLDEsMCwzMiwzMkEzMi4wMzYsMzIuMDM2LDAsMCwwLDg4LDMxMlptMCw0OGExNiwxNiwwLDEsMSwxNi0xNkExNi4wMTksMTYuMDE5LDAsMCwxLDg4LDM2MFoiLz48cGF0aCBkPSJNMTYwLDMxMmEzMiwzMiwwLDEsMCwzMiwzMkEzMi4wMzYsMzIuMDM2LDAsMCwwLDE2MCwzMTJabTAsNDhhMTYsMTYsMCwxLDEsMTYtMTZBMTYuMDE5LDE2LjAxOSwwLDAsMSwxNjAsMzYwWiIvPjxwYXRoIGQ9Ik0yNjQsMzQ0YTMyLDMyLDAsMSwwLTMyLDMyQTMyLjAzNiwzMi4wMzYsMCwwLDAsMjY0LDM0NFptLTQ4LDBhMTYsMTYsMCwxLDEsMTYsMTZBMTYuMDE5LDE2LjAxOSwwLDAsMSwyMTYsMzQ0WiIvPjxwYXRoIGQ9Ik00OTYsNDcySDI4MHYtOGE4LDgsMCwwLDAtOC04aC04VjQzMmgxNmE4LDgsMCwwLDAsOC04VjQwOEg0NjBhMjguMDMxLDI4LjAzMSwwLDAsMCwyOC0yOFYzMDhhMjguMDMxLDI4LjAzMSwwLDAsMC0yOC0yOEg0NDB2LThoMjBhMjguMDMxLDI4LjAzMSwwLDAsMCwyOC0yOFYxNzJhMjguMDMxLDI4LjAzMSwwLDAsMC0yOC0yOEg0NDB2LThoMjBhMjguMDMxLDI4LjAzMSwwLDAsMCwyOC0yOFYzNkEyOC4wMzEsMjguMDMxLDAsMCwwLDQ2MCw4SDUyQTI4LjAzMSwyOC4wMzEsMCwwLDAsMjQsMzZ2NzJhMjguMDMxLDI4LjAzMSwwLDAsMCwyOCwyOEg3MnY4SDUyYTI4LjAzMSwyOC4wMzEsMCwwLDAtMjgsMjh2NzJhMjguMDMxLDI4LjAzMSwwLDAsMCwyOCwyOEg3MnY4SDUyYTI4LjAzMSwyOC4wMzEsMCwwLDAtMjgsMjh2NzJhMjguMDMxLDI4LjAzMSwwLDAsMCwyOCwyOEgyMjR2MTZhOCw4LDAsMCwwLDgsOGgxNnYyNGgtOGE4LDgsMCwwLDAtOCw4djhIMTZhOCw4LDAsMCwwLDAsMTZIMjMydjhhOCw4LDAsMCwwLDgsOGgzMmE4LDgsMCwwLDAsOC04di04SDQ5NmE4LDgsMCwwLDAsMC0xNlpNNDQ4LDI5NmgxMmExMi4wMSwxMi4wMSwwLDAsMSwxMiwxMnY3MmExMi4wMSwxMi4wMSwwLDAsMS0xMiwxMkg0NDhabTAtMTM2aDEyYTEyLjAxLDEyLjAxLDAsMCwxLDEyLDEydjcyYTEyLjAxLDEyLjAxLDAsMCwxLTEyLDEySDQ0OFptMC0xMzZoMTJhMTIuMDEsMTIuMDEsMCwwLDEsMTIsMTJ2NzJhMTIuMDEsMTIuMDEsMCwwLDEtMTIsMTJINDQ4Wk0zNzYsMzkySDM2MFYyOTZoMTZabTI0LDBoLThWMjk2aDhaTTg4LDI4MHYtOEg0MjR2OFptMjcyLTI0VjE2MGgxNnY5NlptMzIsMFYxNjBoOHY5NlptNDAsMTM2SDQxNlYyOTZoMTZabTAtMTM2SDQxNlYxNjBoMTZaTTQxNiwyNGgxNnY5Nkg0MTZabS0yNCwwaDh2OTZoLThabS0zMiwwaDE2djk2SDM2MFptNjQsMTEydjhIODh2LThaTTUyLDEyMGExMi4wMSwxMi4wMSwwLDAsMS0xMi0xMlYzNkExMi4wMSwxMi4wMSwwLDAsMSw1MiwyNEgzNDR2OTZabTAsMTM2YTEyLjAxLDEyLjAxLDAsMCwxLTEyLTEyVjE3MmExMi4wMSwxMi4wMSwwLDAsMSwxMi0xMkgzNDR2OTZabTAsMTM2YTEyLjAxLDEyLjAxLDAsMCwxLTEyLTEyVjMwOGExMi4wMSwxMi4wMSwwLDAsMSwxMi0xMkgzNDR2OTZabTE4OCwyNHYtOGgzMnY4Wm0yNCw3MkgyNDhWNDcyaDE2WiIvPjwvZz48L3N2Zz4=;" vertex="1" parent="1">
          <mxGeometry x="130" y="360" width="56" height="56" as="geometry" />
        </mxCell>
        <mxCell id="zQv13hE1WtpFsyyrXa6s-3" value="" style="shape=image;imageAspect=0;aspect=fixed;verticalLabelPosition=bottom;verticalAlign=top;image=data:image/svg+xml,PHN2ZyB4bWxucz0iaHR0cDovL3d3dy53My5vcmcvMjAwMC9zdmciIGhlaWdodD0iMjU2cHgiIHdpZHRoPSIyNTZweCIgdmlld0JveD0iMCAwIDUxMiA1MTIiPjxyZWN0IHJ5PSIyMCIgcng9IjIwIiBmaWxsPSIjMmQyZDMwIiB5PSIxNTIiIHg9IjMyIiBoZWlnaHQ9IjExMiIgd2lkdGg9IjQ0OCIvPjxjaXJjbGUgZmlsbD0iIzkxZGM1YSIgcj0iMjQiIGN5PSIyMDgiIGN4PSI4OCIvPjxjaXJjbGUgZmlsbD0iI2ZmZGE0NCIgcj0iMjQiIGN5PSIyMDgiIGN4PSIxNjAiLz48Y2lyY2xlIGZpbGw9IiNkODAwMjciIHI9IjI0IiBjeT0iMjA4IiBjeD0iMjMyIi8+PHJlY3QgZmlsbD0iIzAwNmRmMCIgeT0iMTUyIiB4PSI0MDgiIGhlaWdodD0iMTEyIiB3aWR0aD0iMzIiLz48cmVjdCBmaWxsPSIjMDA2ZGYwIiB5PSIxNTIiIHg9IjM1MiIgaGVpZ2h0PSIxMTIiIHdpZHRoPSIzMiIvPjxyZWN0IHJ5PSIyMCIgcng9IjIwIiBmaWxsPSIjMmQyZDMwIiB5PSIxNiIgeD0iMzIiIGhlaWdodD0iMTEyIiB3aWR0aD0iNDQ4Ii8+PGNpcmNsZSBmaWxsPSIjOTFkYzVhIiByPSIyNCIgY3k9IjcyIiBjeD0iODgiLz48Y2lyY2xlIGZpbGw9IiNmZmRhNDQiIHI9IjI0IiBjeT0iNzIiIGN4PSIxNjAiLz48Y2lyY2xlIGZpbGw9IiNkODAwMjciIHI9IjI0IiBjeT0iNzIiIGN4PSIyMzIiLz48cmVjdCBmaWxsPSIjMDA2ZGYwIiB5PSIxNiIgeD0iNDA4IiBoZWlnaHQ9IjExMiIgd2lkdGg9IjMyIi8+PHJlY3QgZmlsbD0iIzAwNmRmMCIgeT0iMTYiIHg9IjM1MiIgaGVpZ2h0PSIxMTIiIHdpZHRoPSIzMiIvPjxyZWN0IGZpbGw9IiM3ODc2ODAiIHk9IjEyOCIgeD0iODAiIGhlaWdodD0iMjQiIHdpZHRoPSIzNTIiLz48cmVjdCByeT0iMjAiIHJ4PSIyMCIgZmlsbD0iIzJkMmQzMCIgeT0iMjg4IiB4PSIzMiIgaGVpZ2h0PSIxMTIiIHdpZHRoPSI0NDgiLz48Y2lyY2xlIGZpbGw9IiM5MWRjNWEiIHI9IjI0IiBjeT0iMzQ0IiBjeD0iODgiLz48Y2lyY2xlIGZpbGw9IiNmZmRhNDQiIHI9IjI0IiBjeT0iMzQ0IiBjeD0iMTYwIi8+PGNpcmNsZSBmaWxsPSIjZDgwMDI3IiByPSIyNCIgY3k9IjM0NCIgY3g9IjIzMiIvPjxyZWN0IGZpbGw9IiMwMDZkZjAiIHk9IjI4OCIgeD0iNDA4IiBoZWlnaHQ9IjExMiIgd2lkdGg9IjMyIi8+PHJlY3QgZmlsbD0iIzAwNmRmMCIgeT0iMjg4IiB4PSIzNTIiIGhlaWdodD0iMTEyIiB3aWR0aD0iMzIiLz48cmVjdCBmaWxsPSIjNzg3NjgwIiB5PSIyNjQiIHg9IjgwIiBoZWlnaHQ9IjI0IiB3aWR0aD0iMzUyIi8+PHJlY3QgZmlsbD0iIzc4NzY4MCIgeT0iNDAwIiB4PSIyMzIiIGhlaWdodD0iMjQiIHdpZHRoPSI0OCIvPjxyZWN0IGZpbGw9IiMzZTNkNDIiIHk9IjQ2NCIgeD0iMjQwIiBoZWlnaHQ9IjMyIiB3aWR0aD0iMzIiLz48Zz48cGF0aCBkPSJNMTIwLDIwOGEzMiwzMiwwLDEsMC0zMiwzMkEzMi4wMzYsMzIuMDM2LDAsMCwwLDEyMCwyMDhabS00OCwwYTE2LDE2LDAsMSwxLDE2LDE2QTE2LjAxOSwxNi4wMTksMCwwLDEsNzIsMjA4WiIvPjxwYXRoIGQ9Ik0xNjAsMjQwYTMyLDMyLDAsMSwwLTMyLTMyQTMyLjAzNiwzMi4wMzYsMCwwLDAsMTYwLDI0MFptMC00OGExNiwxNiwwLDEsMS0xNiwxNkExNi4wMTksMTYuMDE5LDAsMCwxLDE2MCwxOTJaIi8+PHBhdGggZD0iTTIzMiwyNDBhMzIsMzIsMCwxLDAtMzItMzJBMzIuMDM2LDMyLjAzNiwwLDAsMCwyMzIsMjQwWm0wLTQ4YTE2LDE2LDAsMSwxLTE2LDE2QTE2LjAxOSwxNi4wMTksMCwwLDEsMjMyLDE5MloiLz48cGF0aCBkPSJNMTIwLDcyYTMyLDMyLDAsMSwwLTMyLDMyQTMyLjAzNiwzMi4wMzYsMCwwLDAsMTIwLDcyWk03Miw3MkExNiwxNiwwLDEsMSw4OCw4OCwxNi4wMTksMTYuMDE5LDAsMCwxLDcyLDcyWiIvPjxwYXRoIGQ9Ik0xNjAsMTA0YTMyLDMyLDAsMSwwLTMyLTMyQTMyLjAzNiwzMi4wMzYsMCwwLDAsMTYwLDEwNFptMC00OGExNiwxNiwwLDEsMS0xNiwxNkExNi4wMTksMTYuMDE5LDAsMCwxLDE2MCw1NloiLz48cGF0aCBkPSJNMjMyLDEwNGEzMiwzMiwwLDEsMC0zMi0zMkEzMi4wMzYsMzIuMDM2LDAsMCwwLDIzMiwxMDRabTAtNDhhMTYsMTYsMCwxLDEtMTYsMTZBMTYuMDE5LDE2LjAxOSwwLDAsMSwyMzIsNTZaIi8+PHBhdGggZD0iTTg4LDMxMmEzMiwzMiwwLDEsMCwzMiwzMkEzMi4wMzYsMzIuMDM2LDAsMCwwLDg4LDMxMlptMCw0OGExNiwxNiwwLDEsMSwxNi0xNkExNi4wMTksMTYuMDE5LDAsMCwxLDg4LDM2MFoiLz48cGF0aCBkPSJNMTYwLDMxMmEzMiwzMiwwLDEsMCwzMiwzMkEzMi4wMzYsMzIuMDM2LDAsMCwwLDE2MCwzMTJabTAsNDhhMTYsMTYsMCwxLDEsMTYtMTZBMTYuMDE5LDE2LjAxOSwwLDAsMSwxNjAsMzYwWiIvPjxwYXRoIGQ9Ik0yNjQsMzQ0YTMyLDMyLDAsMSwwLTMyLDMyQTMyLjAzNiwzMi4wMzYsMCwwLDAsMjY0LDM0NFptLTQ4LDBhMTYsMTYsMCwxLDEsMTYsMTZBMTYuMDE5LDE2LjAxOSwwLDAsMSwyMTYsMzQ0WiIvPjxwYXRoIGQ9Ik00OTYsNDcySDI4MHYtOGE4LDgsMCwwLDAtOC04aC04VjQzMmgxNmE4LDgsMCwwLDAsOC04VjQwOEg0NjBhMjguMDMxLDI4LjAzMSwwLDAsMCwyOC0yOFYzMDhhMjguMDMxLDI4LjAzMSwwLDAsMC0yOC0yOEg0NDB2LThoMjBhMjguMDMxLDI4LjAzMSwwLDAsMCwyOC0yOFYxNzJhMjguMDMxLDI4LjAzMSwwLDAsMC0yOC0yOEg0NDB2LThoMjBhMjguMDMxLDI4LjAzMSwwLDAsMCwyOC0yOFYzNkEyOC4wMzEsMjguMDMxLDAsMCwwLDQ2MCw4SDUyQTI4LjAzMSwyOC4wMzEsMCwwLDAsMjQsMzZ2NzJhMjguMDMxLDI4LjAzMSwwLDAsMCwyOCwyOEg3MnY4SDUyYTI4LjAzMSwyOC4wMzEsMCwwLDAtMjgsMjh2NzJhMjguMDMxLDI4LjAzMSwwLDAsMCwyOCwyOEg3MnY4SDUyYTI4LjAzMSwyOC4wMzEsMCwwLDAtMjgsMjh2NzJhMjguMDMxLDI4LjAzMSwwLDAsMCwyOCwyOEgyMjR2MTZhOCw4LDAsMCwwLDgsOGgxNnYyNGgtOGE4LDgsMCwwLDAtOCw4djhIMTZhOCw4LDAsMCwwLDAsMTZIMjMydjhhOCw4LDAsMCwwLDgsOGgzMmE4LDgsMCwwLDAsOC04di04SDQ5NmE4LDgsMCwwLDAsMC0xNlpNNDQ4LDI5NmgxMmExMi4wMSwxMi4wMSwwLDAsMSwxMiwxMnY3MmExMi4wMSwxMi4wMSwwLDAsMS0xMiwxMkg0NDhabTAtMTM2aDEyYTEyLjAxLDEyLjAxLDAsMCwxLDEyLDEydjcyYTEyLjAxLDEyLjAxLDAsMCwxLTEyLDEySDQ0OFptMC0xMzZoMTJhMTIuMDEsMTIuMDEsMCwwLDEsMTIsMTJ2NzJhMTIuMDEsMTIuMDEsMCwwLDEtMTIsMTJINDQ4Wk0zNzYsMzkySDM2MFYyOTZoMTZabTI0LDBoLThWMjk2aDhaTTg4LDI4MHYtOEg0MjR2OFptMjcyLTI0VjE2MGgxNnY5NlptMzIsMFYxNjBoOHY5NlptNDAsMTM2SDQxNlYyOTZoMTZabTAtMTM2SDQxNlYxNjBoMTZaTTQxNiwyNGgxNnY5Nkg0MTZabS0yNCwwaDh2OTZoLThabS0zMiwwaDE2djk2SDM2MFptNjQsMTEydjhIODh2LThaTTUyLDEyMGExMi4wMSwxMi4wMSwwLDAsMS0xMi0xMlYzNkExMi4wMSwxMi4wMSwwLDAsMSw1MiwyNEgzNDR2OTZabTAsMTM2YTEyLjAxLDEyLjAxLDAsMCwxLTEyLTEyVjE3MmExMi4wMSwxMi4wMSwwLDAsMSwxMi0xMkgzNDR2OTZabTAsMTM2YTEyLjAxLDEyLjAxLDAsMCwxLTEyLTEyVjMwOGExMi4wMSwxMi4wMSwwLDAsMSwxMi0xMkgzNDR2OTZabTE4OCwyNHYtOGgzMnY4Wm0yNCw3MkgyNDhWNDcyaDE2WiIvPjwvZz48L3N2Zz4=;" vertex="1" parent="1">
          <mxGeometry x="210" y="250" width="126" height="126" as="geometry" />
        </mxCell>
        <mxCell id="zQv13hE1WtpFsyyrXa6s-5" value="" style="shape=image;imageAspect=0;aspect=fixed;verticalLabelPosition=bottom;verticalAlign=top;image=data:image/svg+xml,PHN2ZyB4bWxucz0iaHR0cDovL3d3dy53My5vcmcvMjAwMC9zdmciIGhlaWdodD0iMjU2cHgiIHdpZHRoPSIyNTZweCIgdmlld0JveD0iMCAwIDUxMiA1MTIiPjxyZWN0IHJ5PSIyMCIgcng9IjIwIiBmaWxsPSIjMmQyZDMwIiB5PSIxNTIiIHg9IjMyIiBoZWlnaHQ9IjExMiIgd2lkdGg9IjQ0OCIvPjxjaXJjbGUgZmlsbD0iIzkxZGM1YSIgcj0iMjQiIGN5PSIyMDgiIGN4PSI4OCIvPjxjaXJjbGUgZmlsbD0iI2ZmZGE0NCIgcj0iMjQiIGN5PSIyMDgiIGN4PSIxNjAiLz48Y2lyY2xlIGZpbGw9IiNkODAwMjciIHI9IjI0IiBjeT0iMjA4IiBjeD0iMjMyIi8+PHJlY3QgZmlsbD0iIzAwNmRmMCIgeT0iMTUyIiB4PSI0MDgiIGhlaWdodD0iMTEyIiB3aWR0aD0iMzIiLz48cmVjdCBmaWxsPSIjMDA2ZGYwIiB5PSIxNTIiIHg9IjM1MiIgaGVpZ2h0PSIxMTIiIHdpZHRoPSIzMiIvPjxyZWN0IHJ5PSIyMCIgcng9IjIwIiBmaWxsPSIjMmQyZDMwIiB5PSIxNiIgeD0iMzIiIGhlaWdodD0iMTEyIiB3aWR0aD0iNDQ4Ii8+PGNpcmNsZSBmaWxsPSIjOTFkYzVhIiByPSIyNCIgY3k9IjcyIiBjeD0iODgiLz48Y2lyY2xlIGZpbGw9IiNmZmRhNDQiIHI9IjI0IiBjeT0iNzIiIGN4PSIxNjAiLz48Y2lyY2xlIGZpbGw9IiNkODAwMjciIHI9IjI0IiBjeT0iNzIiIGN4PSIyMzIiLz48cmVjdCBmaWxsPSIjMDA2ZGYwIiB5PSIxNiIgeD0iNDA4IiBoZWlnaHQ9IjExMiIgd2lkdGg9IjMyIi8+PHJlY3QgZmlsbD0iIzAwNmRmMCIgeT0iMTYiIHg9IjM1MiIgaGVpZ2h0PSIxMTIiIHdpZHRoPSIzMiIvPjxyZWN0IGZpbGw9IiM3ODc2ODAiIHk9IjEyOCIgeD0iODAiIGhlaWdodD0iMjQiIHdpZHRoPSIzNTIiLz48cmVjdCByeT0iMjAiIHJ4PSIyMCIgZmlsbD0iIzJkMmQzMCIgeT0iMjg4IiB4PSIzMiIgaGVpZ2h0PSIxMTIiIHdpZHRoPSI0NDgiLz48Y2lyY2xlIGZpbGw9IiM5MWRjNWEiIHI9IjI0IiBjeT0iMzQ0IiBjeD0iODgiLz48Y2lyY2xlIGZpbGw9IiNmZmRhNDQiIHI9IjI0IiBjeT0iMzQ0IiBjeD0iMTYwIi8+PGNpcmNsZSBmaWxsPSIjZDgwMDI3IiByPSIyNCIgY3k9IjM0NCIgY3g9IjIzMiIvPjxyZWN0IGZpbGw9IiMwMDZkZjAiIHk9IjI4OCIgeD0iNDA4IiBoZWlnaHQ9IjExMiIgd2lkdGg9IjMyIi8+PHJlY3QgZmlsbD0iIzAwNmRmMCIgeT0iMjg4IiB4PSIzNTIiIGhlaWdodD0iMTEyIiB3aWR0aD0iMzIiLz48cmVjdCBmaWxsPSIjNzg3NjgwIiB5PSIyNjQiIHg9IjgwIiBoZWlnaHQ9IjI0IiB3aWR0aD0iMzUyIi8+PHJlY3QgZmlsbD0iIzc4NzY4MCIgeT0iNDAwIiB4PSIyMzIiIGhlaWdodD0iMjQiIHdpZHRoPSI0OCIvPjxyZWN0IGZpbGw9IiMzZTNkNDIiIHk9IjQ2NCIgeD0iMjQwIiBoZWlnaHQ9IjMyIiB3aWR0aD0iMzIiLz48Zz48cGF0aCBkPSJNMTIwLDIwOGEzMiwzMiwwLDEsMC0zMiwzMkEzMi4wMzYsMzIuMDM2LDAsMCwwLDEyMCwyMDhabS00OCwwYTE2LDE2LDAsMSwxLDE2LDE2QTE2LjAxOSwxNi4wMTksMCwwLDEsNzIsMjA4WiIvPjxwYXRoIGQ9Ik0xNjAsMjQwYTMyLDMyLDAsMSwwLTMyLTMyQTMyLjAzNiwzMi4wMzYsMCwwLDAsMTYwLDI0MFptMC00OGExNiwxNiwwLDEsMS0xNiwxNkExNi4wMTksMTYuMDE5LDAsMCwxLDE2MCwxOTJaIi8+PHBhdGggZD0iTTIzMiwyNDBhMzIsMzIsMCwxLDAtMzItMzJBMzIuMDM2LDMyLjAzNiwwLDAsMCwyMzIsMjQwWm0wLTQ4YTE2LDE2LDAsMSwxLTE2LDE2QTE2LjAxOSwxNi4wMTksMCwwLDEsMjMyLDE5MloiLz48cGF0aCBkPSJNMTIwLDcyYTMyLDMyLDAsMSwwLTMyLDMyQTMyLjAzNiwzMi4wMzYsMCwwLDAsMTIwLDcyWk03Miw3MkExNiwxNiwwLDEsMSw4OCw4OCwxNi4wMTksMTYuMDE5LDAsMCwxLDcyLDcyWiIvPjxwYXRoIGQ9Ik0xNjAsMTA0YTMyLDMyLDAsMSwwLTMyLTMyQTMyLjAzNiwzMi4wMzYsMCwwLDAsMTYwLDEwNFptMC00OGExNiwxNiwwLDEsMS0xNiwxNkExNi4wMTksMTYuMDE5LDAsMCwxLDE2MCw1NloiLz48cGF0aCBkPSJNMjMyLDEwNGEzMiwzMiwwLDEsMC0zMi0zMkEzMi4wMzYsMzIuMDM2LDAsMCwwLDIzMiwxMDRabTAtNDhhMTYsMTYsMCwxLDEtMTYsMTZBMTYuMDE5LDE2LjAxOSwwLDAsMSwyMzIsNTZaIi8+PHBhdGggZD0iTTg4LDMxMmEzMiwzMiwwLDEsMCwzMiwzMkEzMi4wMzYsMzIuMDM2LDAsMCwwLDg4LDMxMlptMCw0OGExNiwxNiwwLDEsMSwxNi0xNkExNi4wMTksMTYuMDE5LDAsMCwxLDg4LDM2MFoiLz48cGF0aCBkPSJNMTYwLDMxMmEzMiwzMiwwLDEsMCwzMiwzMkEzMi4wMzYsMzIuMDM2LDAsMCwwLDE2MCwzMTJabTAsNDhhMTYsMTYsMCwxLDEsMTYtMTZBMTYuMDE5LDE2LjAxOSwwLDAsMSwxNjAsMzYwWiIvPjxwYXRoIGQ9Ik0yNjQsMzQ0YTMyLDMyLDAsMSwwLTMyLDMyQTMyLjAzNiwzMi4wMzYsMCwwLDAsMjY0LDM0NFptLTQ4LDBhMTYsMTYsMCwxLDEsMTYsMTZBMTYuMDE5LDE2LjAxOSwwLDAsMSwyMTYsMzQ0WiIvPjxwYXRoIGQ9Ik00OTYsNDcySDI4MHYtOGE4LDgsMCwwLDAtOC04aC04VjQzMmgxNmE4LDgsMCwwLDAsOC04VjQwOEg0NjBhMjguMDMxLDI4LjAzMSwwLDAsMCwyOC0yOFYzMDhhMjguMDMxLDI4LjAzMSwwLDAsMC0yOC0yOEg0NDB2LThoMjBhMjguMDMxLDI4LjAzMSwwLDAsMCwyOC0yOFYxNzJhMjguMDMxLDI4LjAzMSwwLDAsMC0yOC0yOEg0NDB2LThoMjBhMjguMDMxLDI4LjAzMSwwLDAsMCwyOC0yOFYzNkEyOC4wMzEsMjguMDMxLDAsMCwwLDQ2MCw4SDUyQTI4LjAzMSwyOC4wMzEsMCwwLDAsMjQsMzZ2NzJhMjguMDMxLDI4LjAzMSwwLDAsMCwyOCwyOEg3MnY4SDUyYTI4LjAzMSwyOC4wMzEsMCwwLDAtMjgsMjh2NzJhMjguMDMxLDI4LjAzMSwwLDAsMCwyOCwyOEg3MnY4SDUyYTI4LjAzMSwyOC4wMzEsMCwwLDAtMjgsMjh2NzJhMjguMDMxLDI4LjAzMSwwLDAsMCwyOCwyOEgyMjR2MTZhOCw4LDAsMCwwLDgsOGgxNnYyNGgtOGE4LDgsMCwwLDAtOCw4djhIMTZhOCw4LDAsMCwwLDAsMTZIMjMydjhhOCw4LDAsMCwwLDgsOGgzMmE4LDgsMCwwLDAsOC04di04SDQ5NmE4LDgsMCwwLDAsMC0xNlpNNDQ4LDI5NmgxMmExMi4wMSwxMi4wMSwwLDAsMSwxMiwxMnY3MmExMi4wMSwxMi4wMSwwLDAsMS0xMiwxMkg0NDhabTAtMTM2aDEyYTEyLjAxLDEyLjAxLDAsMCwxLDEyLDEydjcyYTEyLjAxLDEyLjAxLDAsMCwxLTEyLDEySDQ0OFptMC0xMzZoMTJhMTIuMDEsMTIuMDEsMCwwLDEsMTIsMTJ2NzJhMTIuMDEsMTIuMDEsMCwwLDEtMTIsMTJINDQ4Wk0zNzYsMzkySDM2MFYyOTZoMTZabTI0LDBoLThWMjk2aDhaTTg4LDI4MHYtOEg0MjR2OFptMjcyLTI0VjE2MGgxNnY5NlptMzIsMFYxNjBoOHY5NlptNDAsMTM2SDQxNlYyOTZoMTZabTAtMTM2SDQxNlYxNjBoMTZaTTQxNiwyNGgxNnY5Nkg0MTZabS0yNCwwaDh2OTZoLThabS0zMiwwaDE2djk2SDM2MFptNjQsMTEydjhIODh2LThaTTUyLDEyMGExMi4wMSwxMi4wMSwwLDAsMS0xMi0xMlYzNkExMi4wMSwxMi4wMSwwLDAsMSw1MiwyNEgzNDR2OTZabTAsMTM2YTEyLjAxLDEyLjAxLDAsMCwxLTEyLTEyVjE3MmExMi4wMSwxMi4wMSwwLDAsMSwxMi0xMkgzNDR2OTZabTAsMTM2YTEyLjAxLDEyLjAxLDAsMCwxLTEyLTEyVjMwOGExMi4wMSwxMi4wMSwwLDAsMSwxMi0xMkgzNDR2OTZabTE4OCwyNHYtOGgzMnY4Wm0yNCw3MkgyNDhWNDcyaDE2WiIvPjwvZz48L3N2Zz4=;" vertex="1" parent="1">
          <mxGeometry x="410" y="354" width="56" height="56" as="geometry" />
        </mxCell>
        <mxCell id="zQv13hE1WtpFsyyrXa6s-6" value="" style="shape=image;imageAspect=0;aspect=fixed;verticalLabelPosition=bottom;verticalAlign=top;image=data:image/svg+xml,PHN2ZyB4bWxucz0iaHR0cDovL3d3dy53My5vcmcvMjAwMC9zdmciIGhlaWdodD0iMjU2cHgiIHdpZHRoPSIyNTZweCIgdmlld0JveD0iMCAwIDUxMiA1MTIiPjxyZWN0IHJ5PSIyMCIgcng9IjIwIiBmaWxsPSIjMmQyZDMwIiB5PSIxNTIiIHg9IjMyIiBoZWlnaHQ9IjExMiIgd2lkdGg9IjQ0OCIvPjxjaXJjbGUgZmlsbD0iIzkxZGM1YSIgcj0iMjQiIGN5PSIyMDgiIGN4PSI4OCIvPjxjaXJjbGUgZmlsbD0iI2ZmZGE0NCIgcj0iMjQiIGN5PSIyMDgiIGN4PSIxNjAiLz48Y2lyY2xlIGZpbGw9IiNkODAwMjciIHI9IjI0IiBjeT0iMjA4IiBjeD0iMjMyIi8+PHJlY3QgZmlsbD0iIzAwNmRmMCIgeT0iMTUyIiB4PSI0MDgiIGhlaWdodD0iMTEyIiB3aWR0aD0iMzIiLz48cmVjdCBmaWxsPSIjMDA2ZGYwIiB5PSIxNTIiIHg9IjM1MiIgaGVpZ2h0PSIxMTIiIHdpZHRoPSIzMiIvPjxyZWN0IHJ5PSIyMCIgcng9IjIwIiBmaWxsPSIjMmQyZDMwIiB5PSIxNiIgeD0iMzIiIGhlaWdodD0iMTEyIiB3aWR0aD0iNDQ4Ii8+PGNpcmNsZSBmaWxsPSIjOTFkYzVhIiByPSIyNCIgY3k9IjcyIiBjeD0iODgiLz48Y2lyY2xlIGZpbGw9IiNmZmRhNDQiIHI9IjI0IiBjeT0iNzIiIGN4PSIxNjAiLz48Y2lyY2xlIGZpbGw9IiNkODAwMjciIHI9IjI0IiBjeT0iNzIiIGN4PSIyMzIiLz48cmVjdCBmaWxsPSIjMDA2ZGYwIiB5PSIxNiIgeD0iNDA4IiBoZWlnaHQ9IjExMiIgd2lkdGg9IjMyIi8+PHJlY3QgZmlsbD0iIzAwNmRmMCIgeT0iMTYiIHg9IjM1MiIgaGVpZ2h0PSIxMTIiIHdpZHRoPSIzMiIvPjxyZWN0IGZpbGw9IiM3ODc2ODAiIHk9IjEyOCIgeD0iODAiIGhlaWdodD0iMjQiIHdpZHRoPSIzNTIiLz48cmVjdCByeT0iMjAiIHJ4PSIyMCIgZmlsbD0iIzJkMmQzMCIgeT0iMjg4IiB4PSIzMiIgaGVpZ2h0PSIxMTIiIHdpZHRoPSI0NDgiLz48Y2lyY2xlIGZpbGw9IiM5MWRjNWEiIHI9IjI0IiBjeT0iMzQ0IiBjeD0iODgiLz48Y2lyY2xlIGZpbGw9IiNmZmRhNDQiIHI9IjI0IiBjeT0iMzQ0IiBjeD0iMTYwIi8+PGNpcmNsZSBmaWxsPSIjZDgwMDI3IiByPSIyNCIgY3k9IjM0NCIgY3g9IjIzMiIvPjxyZWN0IGZpbGw9IiMwMDZkZjAiIHk9IjI4OCIgeD0iNDA4IiBoZWlnaHQ9IjExMiIgd2lkdGg9IjMyIi8+PHJlY3QgZmlsbD0iIzAwNmRmMCIgeT0iMjg4IiB4PSIzNTIiIGhlaWdodD0iMTEyIiB3aWR0aD0iMzIiLz48cmVjdCBmaWxsPSIjNzg3NjgwIiB5PSIyNjQiIHg9IjgwIiBoZWlnaHQ9IjI0IiB3aWR0aD0iMzUyIi8+PHJlY3QgZmlsbD0iIzc4NzY4MCIgeT0iNDAwIiB4PSIyMzIiIGhlaWdodD0iMjQiIHdpZHRoPSI0OCIvPjxyZWN0IGZpbGw9IiMzZTNkNDIiIHk9IjQ2NCIgeD0iMjQwIiBoZWlnaHQ9IjMyIiB3aWR0aD0iMzIiLz48Zz48cGF0aCBkPSJNMTIwLDIwOGEzMiwzMiwwLDEsMC0zMiwzMkEzMi4wMzYsMzIuMDM2LDAsMCwwLDEyMCwyMDhabS00OCwwYTE2LDE2LDAsMSwxLDE2LDE2QTE2LjAxOSwxNi4wMTksMCwwLDEsNzIsMjA4WiIvPjxwYXRoIGQ9Ik0xNjAsMjQwYTMyLDMyLDAsMSwwLTMyLTMyQTMyLjAzNiwzMi4wMzYsMCwwLDAsMTYwLDI0MFptMC00OGExNiwxNiwwLDEsMS0xNiwxNkExNi4wMTksMTYuMDE5LDAsMCwxLDE2MCwxOTJaIi8+PHBhdGggZD0iTTIzMiwyNDBhMzIsMzIsMCwxLDAtMzItMzJBMzIuMDM2LDMyLjAzNiwwLDAsMCwyMzIsMjQwWm0wLTQ4YTE2LDE2LDAsMSwxLTE2LDE2QTE2LjAxOSwxNi4wMTksMCwwLDEsMjMyLDE5MloiLz48cGF0aCBkPSJNMTIwLDcyYTMyLDMyLDAsMSwwLTMyLDMyQTMyLjAzNiwzMi4wMzYsMCwwLDAsMTIwLDcyWk03Miw3MkExNiwxNiwwLDEsMSw4OCw4OCwxNi4wMTksMTYuMDE5LDAsMCwxLDcyLDcyWiIvPjxwYXRoIGQ9Ik0xNjAsMTA0YTMyLDMyLDAsMSwwLTMyLTMyQTMyLjAzNiwzMi4wMzYsMCwwLDAsMTYwLDEwNFptMC00OGExNiwxNiwwLDEsMS0xNiwxNkExNi4wMTksMTYuMDE5LDAsMCwxLDE2MCw1NloiLz48cGF0aCBkPSJNMjMyLDEwNGEzMiwzMiwwLDEsMC0zMi0zMkEzMi4wMzYsMzIuMDM2LDAsMCwwLDIzMiwxMDRabTAtNDhhMTYsMTYsMCwxLDEtMTYsMTZBMTYuMDE5LDE2LjAxOSwwLDAsMSwyMzIsNTZaIi8+PHBhdGggZD0iTTg4LDMxMmEzMiwzMiwwLDEsMCwzMiwzMkEzMi4wMzYsMzIuMDM2LDAsMCwwLDg4LDMxMlptMCw0OGExNiwxNiwwLDEsMSwxNi0xNkExNi4wMTksMTYuMDE5LDAsMCwxLDg4LDM2MFoiLz48cGF0aCBkPSJNMTYwLDMxMmEzMiwzMiwwLDEsMCwzMiwzMkEzMi4wMzYsMzIuMDM2LDAsMCwwLDE2MCwzMTJabTAsNDhhMTYsMTYsMCwxLDEsMTYtMTZBMTYuMDE5LDE2LjAxOSwwLDAsMSwxNjAsMzYwWiIvPjxwYXRoIGQ9Ik0yNjQsMzQ0YTMyLDMyLDAsMSwwLTMyLDMyQTMyLjAzNiwzMi4wMzYsMCwwLDAsMjY0LDM0NFptLTQ4LDBhMTYsMTYsMCwxLDEsMTYsMTZBMTYuMDE5LDE2LjAxOSwwLDAsMSwyMTYsMzQ0WiIvPjxwYXRoIGQ9Ik00OTYsNDcySDI4MHYtOGE4LDgsMCwwLDAtOC04aC04VjQzMmgxNmE4LDgsMCwwLDAsOC04VjQwOEg0NjBhMjguMDMxLDI4LjAzMSwwLDAsMCwyOC0yOFYzMDhhMjguMDMxLDI4LjAzMSwwLDAsMC0yOC0yOEg0NDB2LThoMjBhMjguMDMxLDI4LjAzMSwwLDAsMCwyOC0yOFYxNzJhMjguMDMxLDI4LjAzMSwwLDAsMC0yOC0yOEg0NDB2LThoMjBhMjguMDMxLDI4LjAzMSwwLDAsMCwyOC0yOFYzNkEyOC4wMzEsMjguMDMxLDAsMCwwLDQ2MCw4SDUyQTI4LjAzMSwyOC4wMzEsMCwwLDAsMjQsMzZ2NzJhMjguMDMxLDI4LjAzMSwwLDAsMCwyOCwyOEg3MnY4SDUyYTI4LjAzMSwyOC4wMzEsMCwwLDAtMjgsMjh2NzJhMjguMDMxLDI4LjAzMSwwLDAsMCwyOCwyOEg3MnY4SDUyYTI4LjAzMSwyOC4wMzEsMCwwLDAtMjgsMjh2NzJhMjguMDMxLDI4LjAzMSwwLDAsMCwyOCwyOEgyMjR2MTZhOCw4LDAsMCwwLDgsOGgxNnYyNGgtOGE4LDgsMCwwLDAtOCw4djhIMTZhOCw4LDAsMCwwLDAsMTZIMjMydjhhOCw4LDAsMCwwLDgsOGgzMmE4LDgsMCwwLDAsOC04di04SDQ5NmE4LDgsMCwwLDAsMC0xNlpNNDQ4LDI5NmgxMmExMi4wMSwxMi4wMSwwLDAsMSwxMiwxMnY3MmExMi4wMSwxMi4wMSwwLDAsMS0xMiwxMkg0NDhabTAtMTM2aDEyYTEyLjAxLDEyLjAxLDAsMCwxLDEyLDEydjcyYTEyLjAxLDEyLjAxLDAsMCwxLTEyLDEySDQ0OFptMC0xMzZoMTJhMTIuMDEsMTIuMDEsMCwwLDEsMTIsMTJ2NzJhMTIuMDEsMTIuMDEsMCwwLDEtMTIsMTJINDQ4Wk0zNzYsMzkySDM2MFYyOTZoMTZabTI0LDBoLThWMjk2aDhaTTg4LDI4MHYtOEg0MjR2OFptMjcyLTI0VjE2MGgxNnY5NlptMzIsMFYxNjBoOHY5NlptNDAsMTM2SDQxNlYyOTZoMTZabTAtMTM2SDQxNlYxNjBoMTZaTTQxNiwyNGgxNnY5Nkg0MTZabS0yNCwwaDh2OTZoLThabS0zMiwwaDE2djk2SDM2MFptNjQsMTEydjhIODh2LThaTTUyLDEyMGExMi4wMSwxMi4wMSwwLDAsMS0xMi0xMlYzNkExMi4wMSwxMi4wMSwwLDAsMSw1MiwyNEgzNDR2OTZabTAsMTM2YTEyLjAxLDEyLjAxLDAsMCwxLTEyLTEyVjE3MmExMi4wMSwxMi4wMSwwLDAsMSwxMi0xMkgzNDR2OTZabTAsMTM2YTEyLjAxLDEyLjAxLDAsMCwxLTEyLTEyVjMwOGExMi4wMSwxMi4wMSwwLDAsMSwxMi0xMkgzNDR2OTZabTE4OCwyNHYtOGgzMnY4Wm0yNCw3MkgyNDhWNDcyaDE2WiIvPjwvZz48L3N2Zz4=;" vertex="1" parent="1">
          <mxGeometry x="480" y="354" width="56" height="56" as="geometry" />
        </mxCell>
        <mxCell id="zQv13hE1WtpFsyyrXa6s-7" value="" style="shape=image;imageAspect=0;aspect=fixed;verticalLabelPosition=bottom;verticalAlign=top;image=data:image/svg+xml,PHN2ZyB4bWxucz0iaHR0cDovL3d3dy53My5vcmcvMjAwMC9zdmciIGhlaWdodD0iMjU2cHgiIHdpZHRoPSIyNTZweCIgdmlld0JveD0iMCAwIDUxMiA1MTIiPjxyZWN0IHJ5PSIyMCIgcng9IjIwIiBmaWxsPSIjMmQyZDMwIiB5PSIxNTIiIHg9IjMyIiBoZWlnaHQ9IjExMiIgd2lkdGg9IjQ0OCIvPjxjaXJjbGUgZmlsbD0iIzkxZGM1YSIgcj0iMjQiIGN5PSIyMDgiIGN4PSI4OCIvPjxjaXJjbGUgZmlsbD0iI2ZmZGE0NCIgcj0iMjQiIGN5PSIyMDgiIGN4PSIxNjAiLz48Y2lyY2xlIGZpbGw9IiNkODAwMjciIHI9IjI0IiBjeT0iMjA4IiBjeD0iMjMyIi8+PHJlY3QgZmlsbD0iIzAwNmRmMCIgeT0iMTUyIiB4PSI0MDgiIGhlaWdodD0iMTEyIiB3aWR0aD0iMzIiLz48cmVjdCBmaWxsPSIjMDA2ZGYwIiB5PSIxNTIiIHg9IjM1MiIgaGVpZ2h0PSIxMTIiIHdpZHRoPSIzMiIvPjxyZWN0IHJ5PSIyMCIgcng9IjIwIiBmaWxsPSIjMmQyZDMwIiB5PSIxNiIgeD0iMzIiIGhlaWdodD0iMTEyIiB3aWR0aD0iNDQ4Ii8+PGNpcmNsZSBmaWxsPSIjOTFkYzVhIiByPSIyNCIgY3k9IjcyIiBjeD0iODgiLz48Y2lyY2xlIGZpbGw9IiNmZmRhNDQiIHI9IjI0IiBjeT0iNzIiIGN4PSIxNjAiLz48Y2lyY2xlIGZpbGw9IiNkODAwMjciIHI9IjI0IiBjeT0iNzIiIGN4PSIyMzIiLz48cmVjdCBmaWxsPSIjMDA2ZGYwIiB5PSIxNiIgeD0iNDA4IiBoZWlnaHQ9IjExMiIgd2lkdGg9IjMyIi8+PHJlY3QgZmlsbD0iIzAwNmRmMCIgeT0iMTYiIHg9IjM1MiIgaGVpZ2h0PSIxMTIiIHdpZHRoPSIzMiIvPjxyZWN0IGZpbGw9IiM3ODc2ODAiIHk9IjEyOCIgeD0iODAiIGhlaWdodD0iMjQiIHdpZHRoPSIzNTIiLz48cmVjdCByeT0iMjAiIHJ4PSIyMCIgZmlsbD0iIzJkMmQzMCIgeT0iMjg4IiB4PSIzMiIgaGVpZ2h0PSIxMTIiIHdpZHRoPSI0NDgiLz48Y2lyY2xlIGZpbGw9IiM5MWRjNWEiIHI9IjI0IiBjeT0iMzQ0IiBjeD0iODgiLz48Y2lyY2xlIGZpbGw9IiNmZmRhNDQiIHI9IjI0IiBjeT0iMzQ0IiBjeD0iMTYwIi8+PGNpcmNsZSBmaWxsPSIjZDgwMDI3IiByPSIyNCIgY3k9IjM0NCIgY3g9IjIzMiIvPjxyZWN0IGZpbGw9IiMwMDZkZjAiIHk9IjI4OCIgeD0iNDA4IiBoZWlnaHQ9IjExMiIgd2lkdGg9IjMyIi8+PHJlY3QgZmlsbD0iIzAwNmRmMCIgeT0iMjg4IiB4PSIzNTIiIGhlaWdodD0iMTEyIiB3aWR0aD0iMzIiLz48cmVjdCBmaWxsPSIjNzg3NjgwIiB5PSIyNjQiIHg9IjgwIiBoZWlnaHQ9IjI0IiB3aWR0aD0iMzUyIi8+PHJlY3QgZmlsbD0iIzc4NzY4MCIgeT0iNDAwIiB4PSIyMzIiIGhlaWdodD0iMjQiIHdpZHRoPSI0OCIvPjxyZWN0IGZpbGw9IiMzZTNkNDIiIHk9IjQ2NCIgeD0iMjQwIiBoZWlnaHQ9IjMyIiB3aWR0aD0iMzIiLz48Zz48cGF0aCBkPSJNMTIwLDIwOGEzMiwzMiwwLDEsMC0zMiwzMkEzMi4wMzYsMzIuMDM2LDAsMCwwLDEyMCwyMDhabS00OCwwYTE2LDE2LDAsMSwxLDE2LDE2QTE2LjAxOSwxNi4wMTksMCwwLDEsNzIsMjA4WiIvPjxwYXRoIGQ9Ik0xNjAsMjQwYTMyLDMyLDAsMSwwLTMyLTMyQTMyLjAzNiwzMi4wMzYsMCwwLDAsMTYwLDI0MFptMC00OGExNiwxNiwwLDEsMS0xNiwxNkExNi4wMTksMTYuMDE5LDAsMCwxLDE2MCwxOTJaIi8+PHBhdGggZD0iTTIzMiwyNDBhMzIsMzIsMCwxLDAtMzItMzJBMzIuMDM2LDMyLjAzNiwwLDAsMCwyMzIsMjQwWm0wLTQ4YTE2LDE2LDAsMSwxLTE2LDE2QTE2LjAxOSwxNi4wMTksMCwwLDEsMjMyLDE5MloiLz48cGF0aCBkPSJNMTIwLDcyYTMyLDMyLDAsMSwwLTMyLDMyQTMyLjAzNiwzMi4wMzYsMCwwLDAsMTIwLDcyWk03Miw3MkExNiwxNiwwLDEsMSw4OCw4OCwxNi4wMTksMTYuMDE5LDAsMCwxLDcyLDcyWiIvPjxwYXRoIGQ9Ik0xNjAsMTA0YTMyLDMyLDAsMSwwLTMyLTMyQTMyLjAzNiwzMi4wMzYsMCwwLDAsMTYwLDEwNFptMC00OGExNiwxNiwwLDEsMS0xNiwxNkExNi4wMTksMTYuMDE5LDAsMCwxLDE2MCw1NloiLz48cGF0aCBkPSJNMjMyLDEwNGEzMiwzMiwwLDEsMC0zMi0zMkEzMi4wMzYsMzIuMDM2LDAsMCwwLDIzMiwxMDRabTAtNDhhMTYsMTYsMCwxLDEtMTYsMTZBMTYuMDE5LDE2LjAxOSwwLDAsMSwyMzIsNTZaIi8+PHBhdGggZD0iTTg4LDMxMmEzMiwzMiwwLDEsMCwzMiwzMkEzMi4wMzYsMzIuMDM2LDAsMCwwLDg4LDMxMlptMCw0OGExNiwxNiwwLDEsMSwxNi0xNkExNi4wMTksMTYuMDE5LDAsMCwxLDg4LDM2MFoiLz48cGF0aCBkPSJNMTYwLDMxMmEzMiwzMiwwLDEsMCwzMiwzMkEzMi4wMzYsMzIuMDM2LDAsMCwwLDE2MCwzMTJabTAsNDhhMTYsMTYsMCwxLDEsMTYtMTZBMTYuMDE5LDE2LjAxOSwwLDAsMSwxNjAsMzYwWiIvPjxwYXRoIGQ9Ik0yNjQsMzQ0YTMyLDMyLDAsMSwwLTMyLDMyQTMyLjAzNiwzMi4wMzYsMCwwLDAsMjY0LDM0NFptLTQ4LDBhMTYsMTYsMCwxLDEsMTYsMTZBMTYuMDE5LDE2LjAxOSwwLDAsMSwyMTYsMzQ0WiIvPjxwYXRoIGQ9Ik00OTYsNDcySDI4MHYtOGE4LDgsMCwwLDAtOC04aC04VjQzMmgxNmE4LDgsMCwwLDAsOC04VjQwOEg0NjBhMjguMDMxLDI4LjAzMSwwLDAsMCwyOC0yOFYzMDhhMjguMDMxLDI4LjAzMSwwLDAsMC0yOC0yOEg0NDB2LThoMjBhMjguMDMxLDI4LjAzMSwwLDAsMCwyOC0yOFYxNzJhMjguMDMxLDI4LjAzMSwwLDAsMC0yOC0yOEg0NDB2LThoMjBhMjguMDMxLDI4LjAzMSwwLDAsMCwyOC0yOFYzNkEyOC4wMzEsMjguMDMxLDAsMCwwLDQ2MCw4SDUyQTI4LjAzMSwyOC4wMzEsMCwwLDAsMjQsMzZ2NzJhMjguMDMxLDI4LjAzMSwwLDAsMCwyOCwyOEg3MnY4SDUyYTI4LjAzMSwyOC4wMzEsMCwwLDAtMjgsMjh2NzJhMjguMDMxLDI4LjAzMSwwLDAsMCwyOCwyOEg3MnY4SDUyYTI4LjAzMSwyOC4wMzEsMCwwLDAtMjgsMjh2NzJhMjguMDMxLDI4LjAzMSwwLDAsMCwyOCwyOEgyMjR2MTZhOCw4LDAsMCwwLDgsOGgxNnYyNGgtOGE4LDgsMCwwLDAtOCw4djhIMTZhOCw4LDAsMCwwLDAsMTZIMjMydjhhOCw4LDAsMCwwLDgsOGgzMmE4LDgsMCwwLDAsOC04di04SDQ5NmE4LDgsMCwwLDAsMC0xNlpNNDQ4LDI5NmgxMmExMi4wMSwxMi4wMSwwLDAsMSwxMiwxMnY3MmExMi4wMSwxMi4wMSwwLDAsMS0xMiwxMkg0NDhabTAtMTM2aDEyYTEyLjAxLDEyLjAxLDAsMCwxLDEyLDEydjcyYTEyLjAxLDEyLjAxLDAsMCwxLTEyLDEySDQ0OFptMC0xMzZoMTJhMTIuMDEsMTIuMDEsMCwwLDEsMTIsMTJ2NzJhMTIuMDEsMTIuMDEsMCwwLDEtMTIsMTJINDQ4Wk0zNzYsMzkySDM2MFYyOTZoMTZabTI0LDBoLThWMjk2aDhaTTg4LDI4MHYtOEg0MjR2OFptMjcyLTI0VjE2MGgxNnY5NlptMzIsMFYxNjBoOHY5NlptNDAsMTM2SDQxNlYyOTZoMTZabTAtMTM2SDQxNlYxNjBoMTZaTTQxNiwyNGgxNnY5Nkg0MTZabS0yNCwwaDh2OTZoLThabS0zMiwwaDE2djk2SDM2MFptNjQsMTEydjhIODh2LThaTTUyLDEyMGExMi4wMSwxMi4wMSwwLDAsMS0xMi0xMlYzNkExMi4wMSwxMi4wMSwwLDAsMSw1MiwyNEgzNDR2OTZabTAsMTM2YTEyLjAxLDEyLjAxLDAsMCwxLTEyLTEyVjE3MmExMi4wMSwxMi4wMSwwLDAsMSwxMi0xMkgzNDR2OTZabTAsMTM2YTEyLjAxLDEyLjAxLDAsMCwxLTEyLTEyVjMwOGExMi4wMSwxMi4wMSwwLDAsMSwxMi0xMkgzNDR2OTZabTE4OCwyNHYtOGgzMnY4Wm0yNCw3MkgyNDhWNDcyaDE2WiIvPjwvZz48L3N2Zz4=;" vertex="1" parent="1">
          <mxGeometry x="550" y="354" width="56" height="56" as="geometry" />
        </mxCell>
        <mxCell id="zQv13hE1WtpFsyyrXa6s-8" value="" style="curved=1;endArrow=classic;html=1;rounded=0;exitX=0.5;exitY=0;exitDx=0;exitDy=0;entryX=0.016;entryY=0.405;entryDx=0;entryDy=0;entryPerimeter=0;" edge="1" parent="1" source="zQv13hE1WtpFsyyrXa6s-2" target="zQv13hE1WtpFsyyrXa6s-3">
          <mxGeometry width="50" height="50" relative="1" as="geometry">
            <mxPoint x="100" y="310" as="sourcePoint" />
            <mxPoint x="150" y="260" as="targetPoint" />
            <Array as="points">
              <mxPoint x="170" y="310" />
              <mxPoint x="160" y="300" />
            </Array>
          </mxGeometry>
        </mxCell>
        <mxCell id="zQv13hE1WtpFsyyrXa6s-9" value="VERTICAL SCALING" style="rounded=1;whiteSpace=wrap;html=1;fillColor=#007FFF;fontColor=#FFFFFF;fontStyle=1" vertex="1" parent="1">
          <mxGeometry x="160" y="420" width="130" height="20" as="geometry" />
        </mxCell>
        <mxCell id="zQv13hE1WtpFsyyrXa6s-11" value="HORIZONTAL SCALING" style="rounded=1;whiteSpace=wrap;html=1;fillColor=#007FFF;fontColor=#FFFFFF;fontStyle=1" vertex="1" parent="1">
          <mxGeometry x="443" y="420" width="147" height="20" as="geometry" />
        </mxCell>
      </root>
    </mxGraphModel>
  </diagram>
</mxfile>
